<?xml version="1.0" encoding="utf-8"?>
<!-- Generator: Adobe Illustrator 24.0.1, SVG Export Plug-In . SVG Version: 6.00 Build 0)  -->
<svg version="1.1" id="Capa_1" xmlns="http://www.w3.org/2000/svg" xmlns:xlink="http://www.w3.org/1999/xlink" x="0px" y="0px"
	 viewBox="0 0 700 700" style="enable-background:new 0 0 700 700;" xml:space="preserve">
<style type="text/css">
	.st0{fill:#D2D2D2;enable-background:new    ;}
	.st1{fill:#557FFF;}
</style>
<path class="st0" d="M107.6,41.1c10.2-10.3,24.5-17,51.5-20.6c27.8-3.8,64.6-3.8,117.4-3.8h147.1c52.8,0,89.6,0.1,117.4,3.8
	c27,3.7,41.3,10.4,51.5,20.6c10.2,10.3,16.8,24.7,20.4,51.9c3.7,28,3.8,65.2,3.8,118.4V550H197.5c-36.1,0-48.7,0.2-58.4,2.3
	c-17.1,3.7-32,11.6-42.8,22.2c-3.7,3.6-5.5,5.4-9.7,16.8c-2.4,6.6-3.2,11-3.2,15.4V211.4c0-53.2,0.1-90.4,3.8-118.4
	C90.8,65.8,97.4,51.4,107.6,41.1z"/>
<g>
	<path class="st1" d="M350,617.6V550H216.7v67.6c0,9.2,0,13.9,3.2,15.7c3.2,1.9,7.5-0.2,16.1-4.3l41.4-19.8c2.9-1.4,4.4-2.1,6-2.1
		c1.6,0,3,0.7,6,2.1l41.4,19.8c8.7,4.1,13,6.2,16.1,4.3C350,631.5,350,626.8,350,617.6z"/>
	<path class="st1" d="M216.7,550h-19.1c-36.1,0-48.7,0.2-58.4,2.3c-17.1,3.7-32,11.6-42.8,22.2c-3.7,3.6-5.5,5.4-9.7,16.8
		c-4.2,11.4-3.6,16.3-2.2,26c0.2,1.7,0.5,3.4,0.8,5c3.6,21.7,10.3,33.3,20.5,41.5s24.6,13.5,51.7,16.5c27.9,3,64.9,3.1,117.9,3.1
		h147.7c53,0,90,0,117.9-3.1c27.1-2.9,41.4-8.3,51.7-16.5c10.2-8.2,16.9-19.7,20.5-41.5c3.1-18.3,3.7-41.4,3.8-72.4H350v67.6
		c0,9.2,0,13.9-3.2,15.7c-3.2,1.9-7.5-0.2-16.1-4.3l-41.4-19.8c-2.9-1.4-4.4-2.1-6-2.1c-1.6,0-3,0.7-6,2.1L236,629
		c-8.6,4.1-13,6.2-16.1,4.3c-3.2-1.9-3.2-6.5-3.2-15.7V550z"/>
	<path class="st1" d="M191.7,183.3c0-13.8,11.2-25,25-25h266.7c13.8,0,25,11.2,25,25s-11.2,25-25,25H216.7
		C202.9,208.3,191.7,197.1,191.7,183.3z"/>
	<path class="st1" d="M216.7,275c-13.8,0-25,11.2-25,25c0,13.8,11.2,25,25,25h166.7c13.8,0,25-11.2,25-25c0-13.8-11.2-25-25-25
		H216.7z"/>
</g>
</svg>
