<?xml version="1.0" encoding="utf-8"?>
<!-- Generator: Adobe Illustrator 24.0.1, SVG Export Plug-In . SVG Version: 6.00 Build 0)  -->
<svg version="1.1" id="Capa_1" xmlns="http://www.w3.org/2000/svg" xmlns:xlink="http://www.w3.org/1999/xlink" x="0px" y="0px"
	 viewBox="0 0 800 800" style="enable-background:new 0 0 800 800;" xml:space="preserve">
<style type="text/css">
	.st0{fill:#8D93A6;}
	.st1{fill:#5668FF;}
</style>
<path class="st0" d="M157.6,91.1c10.2-10.3,24.5-17,51.5-20.6c27.8-3.8,64.6-3.8,117.4-3.8h147.1c52.8,0,89.6,0.1,117.4,3.8
	c27,3.7,41.3,10.4,51.5,20.6c10.2,10.3,16.8,24.7,20.4,51.9c3.7,28,3.8,65.2,3.8,118.4V600H247.5c-36.1,0-48.7,0.2-58.4,2.3
	c-17.1,3.7-32,11.6-42.8,22.2c-3.7,3.6-5.5,5.4-9.7,16.8c-2.4,6.6-3.2,11-3.2,15.4V261.4c0-53.2,0.1-90.4,3.8-118.4
	C140.8,115.8,147.4,101.4,157.6,91.1z"/>
<path class="st1" d="M666.7,600H247.5c-36.1,0-48.7,0.2-58.4,2.3c-17.1,3.7-32,11.6-42.8,22.2c-3.7,3.6-5.5,5.4-9.7,16.8
	c-4.2,11.4-3.6,16.3-2.2,26c0.2,1.7,0.5,3.4,0.8,5c3.6,21.7,10.3,33.3,20.5,41.5c10.2,8.2,24.6,13.5,51.7,16.5
	c27.9,3,64.9,3.1,117.9,3.1h147.7c53,0,90,0,117.9-3.1c27.1-2.9,41.4-8.3,51.7-16.5c6.7-5.3,11.8-12.1,15.6-22.1H266.7
	c-13.8,0-25-11.2-25-25c0-13.8,11.2-25,25-25h399.2C666.4,629.6,666.6,615.8,666.7,600z"/>
<path class="st1" d="M241.7,233.3c0-13.8,11.2-25,25-25h266.7c13.8,0,25,11.2,25,25s-11.2,25-25,25H266.7
	C252.9,258.3,241.7,247.1,241.7,233.3z"/>
<path class="st1" d="M266.7,325c-13.8,0-25,11.2-25,25c0,13.8,11.2,25,25,25h166.7c13.8,0,25-11.2,25-25c0-13.8-11.2-25-25-25H266.7
	z"/>
</svg>
